<?xml version="1.0" encoding="UTF-8"?>
<svg width="120" height="40" viewBox="0 0 120 40" fill="none" xmlns="http://www.w3.org/2000/svg">
    <!-- iDOC 文字 -->
    <path d="M12 12V28" stroke="#4A6CF7" stroke-width="4" stroke-linecap="round" stroke-linejoin="round"/>
    
    <path d="M28 12H36C38.2091 12 40 13.7909 40 16V24C40 26.2091 38.2091 28 36 28H28C25.7909 28 24 26.2091 24 24V16C24 13.7909 25.7909 12 28 12Z" stroke="#4A6CF7" stroke-width="4" stroke-linecap="round" stroke-linejoin="round" fill="white"/>
    
    <path d="M64 12H56C53.7909 12 52 13.7909 52 16V24C52 26.2091 53.7909 28 56 28H64C66.2091 28 68 26.2091 68 24V16C68 13.7909 66.2091 12 64 12Z" stroke="#4A6CF7" stroke-width="4" stroke-linecap="round" stroke-linejoin="round" fill="white"/>
    
    <path d="M92 12H76C73.7909 12 72 13.7909 72 16V24C72 26.2091 73.7909 28 76 28H92C94.2091 28 96 26.2091 96 24V16C96 13.7909 94.2091 12 92 12Z" stroke="#4A6CF7" stroke-width="4" stroke-linecap="round" stroke-linejoin="round" fill="white"/>
</svg>